<svg id="Capa_1" data-name="Capa 1" xmlns="http://www.w3.org/2000/svg" viewBox="0 0 600.74 684.96"><defs><style>.cls-1{fill:#bfad88;}.cls-2{fill:#1d1d1b;}.cls-3{fill:#fff;}.cls-4{fill:#ff927d;}.cls-5,.cls-6,.cls-7,.cls-8{fill:none;}.cls-5,.cls-7,.cls-8{stroke:#634e42;stroke-width:15px;}.cls-5,.cls-6,.cls-8{stroke-miterlimit:10;}.cls-6{stroke:#1d1d1b;}.cls-7{stroke-linecap:round;stroke-linejoin:round;}.cls-8{stroke-linecap:square;}.cls-9{fill:#c6b495;}</style></defs><title>mol1</title><path class="cls-1" d="M224,119.33A108.26,108.26,0,0,1,115.75,227.59a101,101,0,0,1-40.7-8.87,220.54,220.54,0,0,1,110.64-182A108,108,0,0,1,224,119.33Z"/><path class="cls-1" d="M115.75,11.07A107.77,107.77,0,0,1,185.69,36.7a220.54,220.54,0,0,0-110.64,182C37.33,202.1,7.5,163.85,7.5,119.33A108.26,108.26,0,0,1,115.75,11.07Z"/><path class="cls-1" d="M246.42,353.25v95.44h98V353.24h0c-24.81-10.62-43.41-34.65-48.19-63.87q-.51-3.09-.81-6.24c0-.3.05-.6.07-.91a25.54,25.54,0,1,0-.15,0c0,.31.05.61.08.91q-.3,3.15-.81,6.24C289.86,318.59,271.25,342.63,246.42,353.25ZM376.73,127.31A108.34,108.34,0,0,0,516,231V635.59a41.88,41.88,0,0,1-41.87,41.87H116.72a41.87,41.87,0,0,1-41.87-41.87V228.1q0-4.71.2-9.38a101,101,0,0,0,40.7,8.87A108.26,108.26,0,0,0,185.69,36.7a220.8,220.8,0,0,1,230.68,6.87A108.06,108.06,0,0,0,376.73,127.31Zm-155.9,45.86a17.25,17.25,0,1,0,17.25,17.25A17.25,17.25,0,0,0,220.83,173.17Zm170.64,16.64a17.25,17.25,0,1,0-17.25,17.25A17.25,17.25,0,0,0,391.47,189.81Z"/><circle class="cls-2" cx="220.83" cy="190.42" r="17.25"/><path class="cls-1" d="M485,19.05a108.27,108.27,0,0,1,31,212V228.1A220.8,220.8,0,0,0,416.37,43.57,107.85,107.85,0,0,1,485,19.05Z"/><path class="cls-1" d="M516,228.1V231A108.27,108.27,0,0,1,416.37,43.57,220.8,220.8,0,0,1,516,228.1Z"/><circle cx="374.22" cy="189.81" r="17.25"/><path class="cls-3" d="M344.46,353.24v95.45h-98V353.25h98Z"/><path class="cls-3" d="M344.45,353.24h-98c24.83-10.62,43.44-34.66,48.22-63.88h1.62C301,318.59,319.64,342.62,344.45,353.24Z"/><path class="cls-4" d="M295.44,231.16a25.53,25.53,0,0,1,.08,51.06c.22-2.55.33-5.15.33-7.78,0-.18,0-.35,0-.53a2.25,2.25,0,0,0,0-.26c0-2.66-.15-5.3-.39-7.89-.24,2.59-.38,5.23-.4,7.89a2.25,2.25,0,0,0,0,.26c0,.18,0,.35,0,.53,0,2.63.11,5.23.33,7.78a25.53,25.53,0,0,1,.07-51.06Z"/><path class="cls-1" d="M296.26,289.37h-1.62q.51-3.09.81-6.24Q295.75,286.28,296.26,289.37Z"/><path class="cls-4" d="M295.84,273.91c0,.18,0,.35,0,.53,0,2.63-.11,5.23-.33,7.78h-.15c-.22-2.55-.33-5.15-.33-7.78,0-.18,0-.35,0-.53a2.25,2.25,0,0,1,0-.26c0-2.66.16-5.3.4-7.89.24,2.59.37,5.23.39,7.89A2.25,2.25,0,0,1,295.84,273.91Z"/><path class="cls-1" d="M295.52,282.22c0,.31,0,.61-.07.91,0-.3-.06-.6-.08-.91h.15Z"/><path class="cls-5" d="M75.05,218.72C37.33,202.1,7.5,163.85,7.5,119.33A108.25,108.25,0,0,1,185.69,36.7"/><path class="cls-5" d="M416.37,43.57A108.27,108.27,0,1,1,516,231"/><path class="cls-5" d="M516,231V635.59a41.88,41.88,0,0,1-41.87,41.87H116.72a41.87,41.87,0,0,1-41.87-41.87V228.1q0-4.71.2-9.38a220.59,220.59,0,0,1,441,9.38Z"/><circle class="cls-6" cx="220.83" cy="190.42" r="17.25"/><circle class="cls-6" cx="374.22" cy="189.81" r="17.25"/><polyline class="cls-7" points="344.46 353.24 344.46 448.69 246.42 448.69 246.42 353.25"/><line class="cls-7" x1="296.26" y1="289.37" x2="294.64" y2="289.37"/><path class="cls-7" d="M295.37,282.22c0,.31.05.61.08.91q-.3,3.15-.81,6.24c-4.78,29.22-23.39,53.26-48.22,63.88a72.44,72.44,0,0,1-28.57,5.86c-43.08,0-78-37.9-78-84.67v0"/><path class="cls-7" d="M451,273.67c0,.25,0,.52,0,.77,0,46.77-34.92,84.67-78,84.67a72.4,72.4,0,0,1-28.59-5.87h0c-24.81-10.62-43.41-34.65-48.19-63.87q-.51-3.09-.81-6.24c0-.3.05-.6.07-.91"/><path class="cls-5" d="M295.37,282.22a25.54,25.54,0,1,1,.15,0h-.15Z"/><line class="cls-8" x1="296.26" y1="295.37" x2="296.26" y2="394.44"/><path class="cls-9" d="M296.39,487.27h0a110.3,110.3,0,0,1,110.3,110.3V669a0,0,0,0,1,0,0H186.09a0,0,0,0,1,0,0v-71.4A110.3,110.3,0,0,1,296.39,487.27Z"/></svg>